<svg xmlns="http://www.w3.org/2000/svg" width="28" height="28" viewBox="0 0 28 28">
  <path id="instagram-square-brands" d="M14,42.666A3.334,3.334,0,1,0,17.335,46,3.334,3.334,0,0,0,14,42.666ZM21.794,40.1a3.375,3.375,0,0,0-1.9-1.9c-1.312-.518-4.438-.4-5.894-.4s-4.578-.121-5.894.4a3.375,3.375,0,0,0-1.9,1.9c-.517,1.313-.4,4.441-.4,5.9s-.116,4.579.4,5.9a3.375,3.375,0,0,0,1.9,1.9c1.313.518,4.437.4,5.894.4s4.578.121,5.894-.4a3.375,3.375,0,0,0,1.9-1.9c.522-1.312.4-4.441.4-5.9s.12-4.579-.4-5.9ZM14,51.125a5.119,5.119,0,1,1,3.626-1.5A5.125,5.125,0,0,1,14,51.125Zm5.336-9.269a1.19,1.19,0,1,1,.848-.349,1.2,1.2,0,0,1-.848.349ZM25,32H3a3,3,0,0,0-3,3V57a3,3,0,0,0,3,3H25a3,3,0,0,0,3-3V35a3,3,0,0,0-3-3ZM23.93,50.125a5.947,5.947,0,0,1-1.616,4.188,5.95,5.95,0,0,1-4.187,1.616c-1.651.093-6.6.093-8.25,0a5.958,5.958,0,0,1-4.187-1.616,5.929,5.929,0,0,1-1.616-4.187c-.093-1.651-.093-6.6,0-8.25a5.928,5.928,0,0,1,1.616-4.187,5.96,5.96,0,0,1,4.187-1.611c1.651-.093,6.6-.093,8.25,0a5.95,5.95,0,0,1,4.188,1.616,5.95,5.95,0,0,1,1.616,4.191C24.023,43.527,24.023,48.473,23.93,50.125Z" transform="translate(0 -32)" fill="#767676"/>
</svg>
