<svg xmlns="http://www.w3.org/2000/svg" width="38.978" height="40.289" viewBox="0 0 38.978 40.289">
  <g id="icon-basket_gray" transform="translate(-97.353 -272.513)">
    <g id="icon-basket_gray-2" data-name="icon-basket_gray">
      <rect id="사각형_24055" data-name="사각형 24055" width="34.977" height="26.42" transform="translate(99.354 284.382)" fill="#fff"/>
      <path id="패스_7742" data-name="패스 7742" d="M132.331,286.382V308.8H101.353v-22.42h30.978m4-4H97.353V312.8h38.978v-30.42Z" fill="#767676"/>
    </g>
    <g id="그룹_18621" data-name="그룹 18621">
      <path id="패스_7743" data-name="패스 7743" d="M120.913,276.513h-8.142a2.208,2.208,0,0,0-2.206,2.206v9.532h12.554v-9.532A2.208,2.208,0,0,0,120.913,276.513Z" fill="none"/>
      <path id="패스_7744" data-name="패스 7744" d="M110.565,278.719a2.208,2.208,0,0,1,2.206-2.206h8.142a2.208,2.208,0,0,1,2.206,2.206v9.532h4v-9.532a6.205,6.205,0,0,0-6.206-6.206h-8.142a6.205,6.205,0,0,0-6.206,6.206v9.532h4Z" fill="#767676"/>
      <rect id="사각형_24056" data-name="사각형 24056" width="4" height="4" transform="translate(106.565 288.251)" fill="#767676"/>
      <rect id="사각형_24057" data-name="사각형 24057" width="4" height="4" transform="translate(123.119 288.251)" fill="#767676"/>
    </g>
  </g>
</svg>
