<svg xmlns="http://www.w3.org/2000/svg" width="56" height="56" viewBox="0 0 56 56">
  <g id="icon-search" transform="translate(-248 -4240)">
    <g id="그룹_18494" data-name="그룹 18494">
      <g id="그룹_18456" data-name="그룹 18456" transform="translate(-91 -317)">
        <g id="그룹_18443" data-name="그룹 18443" transform="translate(-20)">
          <path id="패스_7672" data-name="패스 7672" d="M599.543-139.066l-8-8a13.642,13.642,0,0,0,2.883-8.383A13.739,13.739,0,0,0,580.7-169.172a13.739,13.739,0,0,0-13.722,13.722A13.738,13.738,0,0,0,580.7-141.727a13.633,13.633,0,0,0,8.078-2.654l8.039,8.038Zm-28.71-16.383a9.882,9.882,0,0,1,9.871-9.871,9.882,9.882,0,0,1,9.871,9.871,9.882,9.882,0,0,1-9.871,9.871A9.881,9.881,0,0,1,570.832-155.45Z" transform="translate(-196.591 4737.428)" fill="#191919"/>
          <path id="패스_7671" data-name="패스 7671" d="M558.333-177.664h56v56h-56Z" transform="translate(-199.333 4734.664)" fill="none" opacity="0.5"/>
        </g>
      </g>
    </g>
  </g>
</svg>
