<svg xmlns="http://www.w3.org/2000/svg" width="40" height="40" viewBox="0 0 40 40">
  <g id="icon-zoom" transform="translate(-636.413 -836.413)">
    <circle id="타원_129" data-name="타원 129" cx="20" cy="20" r="20" transform="translate(636.413 836.413)" fill="#fff"/>
    <path id="패스_7672" data-name="패스 7672" d="M589.246-148.6l-5.47-5.466a9.318,9.318,0,0,0,1.971-5.728,9.391,9.391,0,0,0-9.383-9.376,9.391,9.391,0,0,0-9.383,9.376,9.39,9.39,0,0,0,9.383,9.376,9.327,9.327,0,0,0,5.524-1.814l5.5,5.492ZM569.615-159.8a6.755,6.755,0,0,1,6.75-6.744,6.755,6.755,0,0,1,6.75,6.744,6.755,6.755,0,0,1-6.75,6.744A6.754,6.754,0,0,1,569.615-159.8Z" transform="translate(78.432 1014.585)" fill="#c9c9c9"/>
  </g>
</svg>
