<svg xmlns="http://www.w3.org/2000/svg" width="28" height="28" viewBox="0 0 28 28">
  <path id="youtube-square-brands" d="M11.675,42.631l5.95,3.381-5.95,3.381ZM28,35V57a3,3,0,0,1-3,3H3a3,3,0,0,1-3-3V35a3,3,0,0,1,3-3H25A3,3,0,0,1,28,35ZM25.375,46.019a30.032,30.032,0,0,0-.475-5.512,2.853,2.853,0,0,0-2.013-2.025C21.119,38,14,38,14,38s-7.119,0-8.888.481A2.853,2.853,0,0,0,3.1,40.506a32.225,32.225,0,0,0,0,11.025,2.812,2.812,0,0,0,2.012,1.994C6.881,54,14,54,14,54s7.119,0,8.888-.481A2.812,2.812,0,0,0,24.9,51.525,29.94,29.94,0,0,0,25.375,46.019Z" transform="translate(0 -32)" fill="#767676"/>
</svg>
