<svg xmlns="http://www.w3.org/2000/svg" width="17.277" height="17.419" viewBox="0 0 17.277 17.419">
  <path id="패스_7672" data-name="패스 7672" d="M584.258-153.2l-4.245-4.245a7.239,7.239,0,0,0,1.529-4.448,7.289,7.289,0,0,0-7.281-7.281,7.289,7.289,0,0,0-7.281,7.281,7.289,7.289,0,0,0,7.281,7.281,7.234,7.234,0,0,0,4.286-1.408l4.266,4.265Zm-15.233-8.693a5.243,5.243,0,0,1,5.237-5.237,5.243,5.243,0,0,1,5.237,5.237,5.243,5.243,0,0,1-5.237,5.237A5.243,5.243,0,0,1,569.024-161.891Z" transform="translate(-566.981 169.172)" fill="#c9c9c9"/>
</svg>
