<svg xmlns="http://www.w3.org/2000/svg" width="80" height="80" viewBox="0 0 80 80">
  <g id="icon-app" transform="translate(-160 -219)">
    <rect id="bg" width="80" height="80" rx="5" transform="translate(160 219)" fill="#fff"/>
    <g id="jp" transform="translate(170 249)">
      <path id="패스_7733" data-name="패스 7733" d="M165.461,20.148h-5.725V.014h5.727Z" transform="translate(-105.428 -0.009)" fill="#7f0019"/>
      <path id="패스_7734" data-name="패스 7734" d="M15.446,5.709l-3.27,14.432H8.167L4.871,5.709V20.141H0V0L7.3,0l2.869,12.592L13.03,0h7.293V20.147H15.446Z" fill="#7f0019"/>
      <path id="패스_7735" data-name="패스 7735" d="M81.481,15.177c0,3.495-3.418,5.518-7.612,5.518s-7.615-2.028-7.615-5.523L66.24,0h5.726l.011,15.09a1.926,1.926,0,0,0,3.785,0L75.774,0H81.5Z" transform="translate(-43.775)" fill="#7f0019"/>
      <path id="패스_7736" data-name="패스 7736" d="M127.2,15.809c0,3.051-2.98,4.913-6.64,4.913s-6.635-1.862-6.635-4.913c-.014-.762-.011-1.89-.011-2.957l5.093,0v2.961a1.26,1.26,0,0,0,2.479,0L121.5,0h5.727Z" transform="translate(-75.371)" fill="#7f0019"/>
    </g>
  </g>
</svg>
