<svg id="icon-user" xmlns="http://www.w3.org/2000/svg" width="56" height="56" viewBox="0 0 56 56">
  <rect id="사각형_192" data-name="사각형 192" width="56" height="56" fill="none" opacity="0.5"/>
  <g id="그룹_18652" data-name="그룹 18652" transform="translate(1.678 2.839)">
    <g id="타원_122" data-name="타원 122" transform="translate(15.399 4)" fill="#fff" stroke="#707070" stroke-width="4">
      <circle cx="10.922" cy="10.922" r="10.922" stroke="none"/>
      <circle cx="10.922" cy="10.922" r="8.922" fill="none"/>
    </g>
    <g id="패스_7877" data-name="패스 7877" transform="translate(9.314 27.694)" fill="#fff">
      <path d="M 32.01634216308594 16.62799835205078 L 2.000001192092896 16.62799835205078 L 2.000001192092896 9.313998222351074 C 2.000001192092896 5.28104829788208 5.281051158905029 1.999998211860657 9.314001083374023 1.999998211860657 L 24.70234107971191 1.999998211860657 C 28.73529052734375 1.999998211860657 32.01634216308594 5.28104829788208 32.01634216308594 9.313998222351074 L 32.01634216308594 16.62799835205078 Z" stroke="none"/>
      <path d="M 9.314001083374023 3.999998092651367 C 6.383852005004883 3.999998092651367 4.000001907348633 6.383848190307617 4.000001907348633 9.313998222351074 L 4.000001907348633 14.62799835205078 L 30.01634216308594 14.62799835205078 L 30.01634216308594 9.313998222351074 C 30.01634216308594 6.383848190307617 27.63249206542969 3.999998092651367 24.70234107971191 3.999998092651367 L 9.314001083374023 3.999998092651367 M 9.314001083374023 -1.9073486328125e-06 L 24.70234107971191 -1.9073486328125e-06 C 29.84632110595703 -1.9073486328125e-06 34.01634216308594 4.170018196105957 34.01634216308594 9.313998222351074 C 34.01634216308594 14.45797824859619 34.01634216308594 18.62799835205078 34.01634216308594 18.62799835205078 L 0 18.62799835205078 C 0 18.62799835205078 0 14.45797824859619 0 9.313998222351074 C 0 4.170018196105957 4.170021057128906 -1.9073486328125e-06 9.314001083374023 -1.9073486328125e-06 Z" stroke="none" fill="#707070"/>
    </g>
  </g>
</svg>
