<svg id="MUJI_logo" xmlns="http://www.w3.org/2000/svg" width="322.549" height="217.72" viewBox="0 0 322.549 217.72">
  <g id="그룹_18600" data-name="그룹 18600">
    <path id="패스_7733" data-name="패스 7733" d="M190.492,130.424H159.736V.014H190.5Z" transform="translate(132.045 0.012)" fill="#7f0019"/>
    <path id="패스_7734" data-name="패스 7734" d="M82.985,36.972,65.418,130.436H43.878L26.173,36.972v93.463H0V.026L39.2,0,54.613,81.551,70,0h39.181V130.478h-26.2Z" fill="#7f0019"/>
    <path id="패스_7735" data-name="패스 7735" d="M148.127,97.85c0,22.529-18.363,35.575-40.895,35.575S66.319,120.353,66.319,97.816L66.24,0H97l.059,97.284a10.169,10.169,0,0,0,20.337,0L117.461,0h30.762Z" transform="translate(54.455)" fill="#7f0019"/>
    <path id="패스_7736" data-name="패스 7736" d="M185.3,101.9c0,19.665-16.012,31.666-35.677,31.666s-35.649-12-35.649-31.666c-.076-4.911-.057-12.184-.057-19.058l27.363-.028V101.9a6.659,6.659,0,1,0,13.317,0L154.636,0h30.771Z" transform="translate(93.175)" fill="#7f0019"/>
  </g>
  <g id="그룹_18601" data-name="그룹 18601" transform="translate(22.01 148.5)">
    <path id="패스_7737" data-name="패스 7737" d="M23.861,99.48a62.855,62.855,0,0,1-5.085,4.074A30.944,30.944,0,0,0,11.908,95.9c6.085-4.081,9.805-7.58,12.595-11.809a16.378,16.378,0,0,0,1.651-3.15L37.6,82.8a11.542,11.542,0,0,0-1.288,1.937,30.492,30.492,0,0,1-1.719,2.647H67.806a72.3,72.3,0,0,0,9.164-.433V97.692a54.976,54.976,0,0,0-6.368-.427v6.584h1.937a46.989,46.989,0,0,0,7.083-.351V114.23a46.021,46.021,0,0,0-7.083-.355H70.6v6.8h.573a48.224,48.224,0,0,0,6.8-.288v10.526a38.89,38.89,0,0,0-6.73-.359c3.148,3.791,3.939,4.935,8.515,12.877l-9.728,6.015A80,80,0,0,0,61.512,133.7l6.586-3.146H23.074l7.587,3.723c-2.937,7.227-4.869,10.589-9.162,15.6l-8.809-6.726a35.492,35.492,0,0,0,8.445-12.593h-.569a34.22,34.22,0,0,0-6.015.359v-10.6a44.474,44.474,0,0,0,7.087.36h1.436v-6.8H20.567a47.129,47.129,0,0,0-7.085.355V103.5a46.941,46.941,0,0,0,7.085.351h3.294V99.48Zm9.088,50.107c.14-1.933.14-2.508.14-3.867a117.254,117.254,0,0,0-.643-12.6l9.951-.933a111.574,111.574,0,0,1,1.641,16.6Zm-.144-45.741H36.1V97.262H32.805Zm0,16.824H36.1v-6.8H32.805Zm12.386-16.824h3.362V97.262H45.191Zm0,16.824h3.362v-6.8H45.191Zm4.724,28.7a108.318,108.318,0,0,0-3.079-15.746l9.951-2.074a104.389,104.389,0,0,1,4.148,15.606Zm11.094-45.521V97.262H57.573v6.584Zm0,16.824v-6.8H57.573v6.8Z" transform="translate(-11.908 -80.939)" fill="#7f0019"/>
    <path id="패스_7738" data-name="패스 7738" d="M84.753,92.119l-2.366.8a159.56,159.56,0,0,1-18.032,4.723v8.656H75.589a52.173,52.173,0,0,0,6.586-.357V116.89a47.345,47.345,0,0,0-6.441-.355H64.353v11.1h11.6a39.578,39.578,0,0,0,6.294-.355v10.94a48.53,48.53,0,0,0-6.294-.355h-11.6c.076,3.157.076,3.937.281,5.878H52.973A79.537,79.537,0,0,0,53.4,134V94.7a43.219,43.219,0,0,0-.22-6.369c9.027-.932,16.321-2.578,22.334-5.009a19.434,19.434,0,0,0,3.5-1.726l5.732,9.092v-.566c0-2.436-.074-3.793-.216-5.517A55.747,55.747,0,0,0,91.4,84.9h18.825a60.894,60.894,0,0,0,6.728-.288,59.178,59.178,0,0,0-.286,6.8v38.727c0,3.723-.357,5.726-1.429,7.159-1.721,2.5-4.223,3.216-11.022,3.216-1.146,0-2.079-.076-4.011-.144a35.382,35.382,0,0,0-2.078-11.243,30.87,30.87,0,0,0,5.159.436c1.784,0,2.216-.36,2.216-1.793V95.486H95.84v43.728a85.089,85.089,0,0,0,.433,9.737H84.319A80.845,80.845,0,0,0,84.752,139V92.119Z" transform="translate(21.74 -80.38)" fill="#7f0019"/>
    <path id="패스_7739" data-name="패스 7739" d="M126.285,142.407a307.909,307.909,0,0,1-30.276,6.373c-.928.148-1,.148-1.786.285-.573.142-.649.142-1.288.29l-1.869-11.243c1.73-.065,4.294-.279,7.159-.641V94.744a58.915,58.915,0,0,0-.355-7.586c2.368.213,5.149.355,8.09.355h12.811V86.8a33.159,33.159,0,0,0-.423-5.087h12.023a23.284,23.284,0,0,0-.431,5.15v.649h13.521c2.941,0,5.593-.142,7.959-.355a60.68,60.68,0,0,0-.355,7.8v18.678a53.623,53.623,0,0,0,.355,7.952c-2.009-.144-3.013-.216-5.233-.288l7.593,5.369a103.091,103.091,0,0,1-12.1,7.227,54.581,54.581,0,0,0,17.535,4.434c-2.285,3.224-3.366,5.445-5.366,11.171a60.763,60.763,0,0,1-16.82-6.018,49.57,49.57,0,0,1-10.809-7.724Zm-16.82-42.157H140.03V97.245H109.465v3.005Zm0,11.813H140.03v-3.288H109.465v3.288Zm0,23.76c5.3-.854,5.3-.854,14.1-2.789-3.222-3.65-4.8-6.3-7.083-11.739h-7.02ZM127.657,121.3a20.432,20.432,0,0,0,5.29,6.944,57.327,57.327,0,0,0,10.308-6.944h-15.6Z" transform="translate(52.91 -80.281)" fill="#7f0019"/>
    <path id="패스_7740" data-name="패스 7740" d="M131.464,147.92a60.57,60.57,0,0,0,.423-8.159V120.295a66.525,66.525,0,0,0-.279-6.66,71.6,71.6,0,0,0,7.294.283h17.755c1.932,0,3.432-.067,4.937-.207a51.583,51.583,0,0,0-.144,5.726v21.544c0,2.578.068,4.294.22,5.867H150.929v-2.005h-8.306v3.077H131.464Zm9.088-58.687a59.917,59.917,0,0,0-.288-6.589,77.313,77.313,0,0,0,8.159.292h30.492a76.319,76.319,0,0,0,8.234-.292,53.647,53.647,0,0,0-.286,6.589V103.54a57.96,57.96,0,0,0,.286,6.95c-2-.148-3.364-.214-7.307-.214H147.495c-3.857,0-5.294.067-7.231.214.144-1.786.288-4.15.288-6.95Zm10.38,34.57h-8.371v11.168h8.371Zm.427-30.712v7.375h24.625V93.091Zm37.575,20.827a50.735,50.735,0,0,0,6.66-.283,61.044,61.044,0,0,0-.288,6.732v19.467a47.153,47.153,0,0,0,.433,8.087H184.5v-3.077h-9.02v3.077H164.891c.139-1.713.211-3.364.211-5.87V119.289a53.617,53.617,0,0,0-.142-5.578c1.5.14,2.933.207,4.941.207Zm-13.452,21.053h9.092V123.8h-9.092Z" transform="translate(86.051 -79.493)" fill="#7f0019"/>
  </g>
</svg>
