<svg xmlns="http://www.w3.org/2000/svg" width="234" height="70" viewBox="0 0 234 70">
  <g id="logo" transform="translate(-143 -269.537)">
    <rect id="bg" width="234" height="70" transform="translate(143 269.537)" fill="#fff"/>
    <g id="jp" transform="translate(143 284.537)">
      <path id="패스_7733" data-name="패스 7733" d="M171.083,39.923H159.736V.014h11.351Z" transform="translate(-52.09 -0.004)" fill="#7f0019"/>
      <path id="패스_7734" data-name="패스 7734" d="M30.616,11.316,24.135,39.921H16.188L9.656,11.316V39.921H0V.008L14.461,0l5.687,24.959L25.826,0H40.282V39.934H30.616Z" fill="#7f0019"/>
      <path id="패스_7735" data-name="패스 7735" d="M96.45,30.084c0,6.927-6.775,10.938-15.087,10.938S66.269,37,66.269,30.073L66.24,0H77.59l.022,29.91c0,1.714,1.693,3.107,3.752,3.107s3.751-1.393,3.751-3.107L85.137,0H96.486Z" transform="translate(-21.712)" fill="#7f0019"/>
      <path id="패스_7736" data-name="패스 7736" d="M140.253,31.336c0,6.047-5.907,9.738-13.162,9.738s-13.152-3.691-13.152-9.738c-.028-1.51-.021-3.747-.021-5.861l10.095-.009v5.869a2.5,2.5,0,0,0,4.913,0L128.939,0h11.352Z" transform="translate(-37.515)" fill="#7f0019"/>
    </g>
    <g id="eng" transform="translate(271.453 291.537)">
      <path id="패스_7737" data-name="패스 7737" d="M16.318,87.779a23.187,23.187,0,0,1-1.876,1.5,11.416,11.416,0,0,0-2.534-2.824A15.53,15.53,0,0,0,16.555,82.1a6.043,6.043,0,0,0,.609-1.162l4.224.687a4.258,4.258,0,0,0-.475.715,11.249,11.249,0,0,1-.634.976H32.53a26.674,26.674,0,0,0,3.381-.16V87.12a20.281,20.281,0,0,0-2.349-.158v2.429h.715a17.337,17.337,0,0,0,2.613-.13v3.959a16.977,16.977,0,0,0-2.613-.131h-.715V95.6h.211a17.79,17.79,0,0,0,2.509-.106v3.883a14.347,14.347,0,0,0-2.483-.132,25.637,25.637,0,0,1,3.142,4.751l-3.589,2.219a29.513,29.513,0,0,0-3.144-5.809l2.43-1.161H16.027l2.8,1.373a17.653,17.653,0,0,1-3.38,5.754l-3.25-2.481a13.094,13.094,0,0,0,3.116-4.646H15.1a12.624,12.624,0,0,0-2.219.132v-3.91A16.408,16.408,0,0,0,15.5,95.6h.53V93.09H15.1a17.386,17.386,0,0,0-2.614.131V89.262a17.319,17.319,0,0,0,2.614.13h1.215Zm3.353,18.486c.052-.713.052-.925.052-1.427a43.258,43.258,0,0,0-.237-4.648l3.671-.344a41.163,41.163,0,0,1,.606,6.125ZM19.618,89.39h1.214V86.961H19.618Zm0,6.207h1.214V93.088H19.618Zm4.569-6.207h1.24V86.961h-1.24Zm0,6.207h1.24V93.088h-1.24Zm1.743,10.587a39.961,39.961,0,0,0-1.136-5.809l3.671-.765A38.512,38.512,0,0,1,30,105.367ZM30.023,89.39V86.961H28.755V89.39Zm0,6.207V93.088H28.755V95.6Z" transform="translate(-11.908 -80.939)" fill="#7f0019"/>
      <path id="패스_7738" data-name="패스 7738" d="M64.7,85.479l-.873.294a58.87,58.87,0,0,1-6.653,1.742v3.193h4.145a19.248,19.248,0,0,0,2.43-.132v4.041a17.468,17.468,0,0,0-2.376-.131h-4.2v4.093H61.45a14.6,14.6,0,0,0,2.322-.131v4.036a17.9,17.9,0,0,0-2.322-.131H57.171c.028,1.165.028,1.452.1,2.168h-4.3a29.345,29.345,0,0,0,.158-3.594v-14.5a15.945,15.945,0,0,0-.081-2.35,30.28,30.28,0,0,0,8.239-1.848,7.169,7.169,0,0,0,1.293-.637L64.7,84.952v-.209c0-.9-.027-1.4-.08-2.035a20.566,20.566,0,0,0,2.534.106H74.1a22.465,22.465,0,0,0,2.482-.106,21.831,21.831,0,0,0-.106,2.51V99.506a4.292,4.292,0,0,1-.527,2.641c-.635.923-1.558,1.187-4.066,1.187-.423,0-.767-.028-1.48-.053a13.054,13.054,0,0,0-.766-4.148,11.389,11.389,0,0,0,1.9.161c.658,0,.818-.133.818-.661V86.722H68.788v16.133a31.394,31.394,0,0,0,.16,3.592h-4.41a29.827,29.827,0,0,0,.16-3.67v-17.3Z" transform="translate(-25.409 -81.149)" fill="#7f0019"/>
      <path id="패스_7739" data-name="패스 7739" d="M104.06,104.106a113.6,113.6,0,0,1-11.17,2.351c-.342.055-.37.055-.659.1-.211.053-.239.053-.475.107l-.689-4.148c.638-.024,1.584-.1,2.641-.237V86.522a21.736,21.736,0,0,0-.131-2.8c.874.078,1.9.131,2.985.131h4.726v-.263a12.233,12.233,0,0,0-.156-1.877h4.436a8.591,8.591,0,0,0-.159,1.9v.239H110.4c1.085,0,2.063-.053,2.936-.131A22.386,22.386,0,0,0,113.2,86.6v6.891a19.781,19.781,0,0,0,.131,2.934c-.741-.053-1.112-.08-1.93-.106l2.8,1.981a38.033,38.033,0,0,1-4.466,2.666,20.137,20.137,0,0,0,6.469,1.636,13.955,13.955,0,0,0-1.98,4.121,22.416,22.416,0,0,1-6.205-2.22,18.287,18.287,0,0,1-3.988-2.85ZM97.855,88.553h11.276V87.444H97.855v1.109Zm0,4.358h11.276V91.7H97.855v1.213Zm0,8.766c1.955-.315,1.955-.315,5.2-1.029a13.463,13.463,0,0,1-2.613-4.331h-2.59Zm6.711-5.359a7.538,7.538,0,0,0,1.952,2.562,21.151,21.151,0,0,0,3.8-2.562Z" transform="translate(-37.95 -81.186)" fill="#7f0019"/>
      <path id="패스_7740" data-name="패스 7740" d="M131.464,106.726a22.343,22.343,0,0,0,.156-3.01V96.534a24.551,24.551,0,0,0-.1-2.457,26.418,26.418,0,0,0,2.691.1h6.55c.713,0,1.266-.025,1.821-.076a19.029,19.029,0,0,0-.053,2.113v7.948c0,.951.025,1.584.081,2.164h-3.963v-.74h-3.064v1.135h-4.117Zm3.353-21.651a22.1,22.1,0,0,0-.106-2.431,28.523,28.523,0,0,0,3.01.108H148.97a28.156,28.156,0,0,0,3.038-.108,19.787,19.787,0,0,0-.106,2.431v5.278a21.378,21.378,0,0,0,.106,2.564c-.739-.055-1.241-.079-2.7-.079H137.378c-1.423,0-1.953.025-2.668.079.053-.659.106-1.531.106-2.564Zm3.83,12.754h-3.088v4.12h3.088ZM138.8,86.5v2.721h9.085V86.5Zm13.862,7.684a18.72,18.72,0,0,0,2.457-.1,22.525,22.525,0,0,0-.106,2.483v7.182a17.4,17.4,0,0,0,.16,2.983h-4.145v-1.135H147.7v1.135H143.8c.051-.632.078-1.241.078-2.166v-8.4a19.781,19.781,0,0,0-.053-2.058c.554.052,1.082.076,1.823.076Zm-4.963,7.767h3.354v-4.12H147.7Z" transform="translate(-51.217 -81.481)" fill="#7f0019"/>
    </g>
  </g>
</svg>
